<svg xmlns="http://www.w3.org/2000/svg" xmlns:xlink="http://www.w3.org/1999/xlink" version="1.1" class="marks" width="699" height="353" viewBox="0 0 699 353"><rect width="699" height="353" fill="white"/><g fill="none" stroke-miterlimit="10" transform="translate(83,52)"><g class="mark-group role-frame root" role="graphics-object" aria-roledescription="group mark container"><g transform="translate(0,0)"><path class="background" aria-hidden="true" d="M0,0h0v0h0Z"/><g><g class="mark-group role-column-title facet-title" role="graphics-object" aria-roledescription="group mark container"><g transform="translate(214,-26)"><path class="background" aria-hidden="true" d="M0,0h0v0h0Z"/><g><g class="mark-group role-title"><g transform="translate(0,-21)"><path class="background" aria-hidden="true" d="M0,0h0v0h0Z" pointer-events="none"/><g><g class="mark-text role-title-text" role="graphics-symbol" aria-roledescription="title" aria-label="Title text 'solver'" pointer-events="none"><text text-anchor="middle" transform="translate(0,9)" font-family="sans-serif" font-size="11px" font-weight="bold" fill="#000" opacity="1">solver</text></g></g><path class="foreground" aria-hidden="true" d="" pointer-events="none" display="none"/></g></g></g><path class="foreground" aria-hidden="true" d="" display="none"/></g></g><g class="mark-group role-scope cell" role="graphics-object" aria-roledescription="group mark container"><g transform="translate(0,0)"><path class="background" aria-hidden="true" d="M0,0h0v0h0Z"/><g><g class="mark-group role-scope child_concat_0_group" role="graphics-object" aria-roledescription="group mark container"><g transform="translate(0,0)"><path class="background" aria-hidden="true" d="M0.5,0.5h200v200h-200Z" stroke="#ddd"/><g><g class="mark-group role-axis" aria-hidden="true"><g transform="translate(0.5,200.5)"><path class="background" aria-hidden="true" d="M0,0h0v0h0Z" pointer-events="none"/><g><g class="mark-rule role-axis-grid" pointer-events="none"><line transform="translate(0,-200)" x2="0" y2="200" stroke="#ddd" stroke-width="1" opacity="1"/><line transform="translate(56,-200)" x2="0" y2="200" stroke="#ddd" stroke-width="1" opacity="1"/><line transform="translate(111,-200)" x2="0" y2="200" stroke="#ddd" stroke-width="1" opacity="1"/><line transform="translate(167,-200)" x2="0" y2="200" stroke="#ddd" stroke-width="1" opacity="1"/></g></g><path class="foreground" aria-hidden="true" d="" pointer-events="none" display="none"/></g></g><g class="mark-group role-axis" aria-hidden="true"><g transform="translate(0.5,0.5)"><path class="background" aria-hidden="true" d="M0,0h0v0h0Z" pointer-events="none"/><g><g class="mark-rule role-axis-grid" pointer-events="none"><line transform="translate(0,187)" x2="200" y2="0" stroke="#ddd" stroke-width="1" opacity="1"/><line transform="translate(0,160)" x2="200" y2="0" stroke="#ddd" stroke-width="1" opacity="1"/><line transform="translate(0,133)" x2="200" y2="0" stroke="#ddd" stroke-width="1" opacity="1"/><line transform="translate(0,107)" x2="200" y2="0" stroke="#ddd" stroke-width="1" opacity="1"/><line transform="translate(0,80)" x2="200" y2="0" stroke="#ddd" stroke-width="1" opacity="1"/><line transform="translate(0,53)" x2="200" y2="0" stroke="#ddd" stroke-width="1" opacity="1"/><line transform="translate(0,27)" x2="200" y2="0" stroke="#ddd" stroke-width="1" opacity="1"/><line transform="translate(0,0)" x2="200" y2="0" stroke="#ddd" stroke-width="1" opacity="1"/></g></g><path class="foreground" aria-hidden="true" d="" pointer-events="none" display="none"/></g></g><g class="mark-group role-axis" role="graphics-symbol" aria-roledescription="axis" aria-label="X-axis titled 'vcycles' for a linear scale with values from 0 to 18"><g transform="translate(0.5,200.5)"><path class="background" aria-hidden="true" d="M0,0h0v0h0Z" pointer-events="none"/><g><g class="mark-rule role-axis-tick" pointer-events="none"><line transform="translate(0,0)" x2="0" y2="5" stroke="#888" stroke-width="1" opacity="1"/><line transform="translate(56,0)" x2="0" y2="5" stroke="#888" stroke-width="1" opacity="1"/><line transform="translate(111,0)" x2="0" y2="5" stroke="#888" stroke-width="1" opacity="1"/><line transform="translate(167,0)" x2="0" y2="5" stroke="#888" stroke-width="1" opacity="1"/></g><g class="mark-text role-axis-label" pointer-events="none"><text text-anchor="start" transform="translate(0,15)" font-family="sans-serif" font-size="10px" fill="#000" opacity="1">0</text><text text-anchor="middle" transform="translate(55.55555555555556,15)" font-family="sans-serif" font-size="10px" fill="#000" opacity="1">5</text><text text-anchor="middle" transform="translate(111.11111111111111,15)" font-family="sans-serif" font-size="10px" fill="#000" opacity="1">10</text><text text-anchor="middle" transform="translate(166.66666666666669,15)" font-family="sans-serif" font-size="10px" fill="#000" opacity="1">15</text></g><g class="mark-rule role-axis-domain" pointer-events="none"><line transform="translate(0,0)" x2="200" y2="0" stroke="#888" stroke-width="1" opacity="1"/></g><g class="mark-text role-axis-title" pointer-events="none"><text text-anchor="middle" transform="translate(100,30)" font-family="sans-serif" font-size="11px" font-weight="bold" fill="#000" opacity="1">vcycles</text></g></g><path class="foreground" aria-hidden="true" d="" pointer-events="none" display="none"/></g></g><g class="mark-group role-axis" role="graphics-symbol" aria-roledescription="axis" aria-label="Y-axis titled 'rel_res_Linf' for a log scale with values from 1e-15 to 1e+0"><g transform="translate(0.5,0.5)"><path class="background" aria-hidden="true" d="M0,0h0v0h0Z" pointer-events="none"/><g><g class="mark-rule role-axis-tick" pointer-events="none"><line transform="translate(0,187)" x2="-5" y2="0" stroke="#888" stroke-width="1" opacity="1"/><line transform="translate(0,160)" x2="-5" y2="0" stroke="#888" stroke-width="1" opacity="1"/><line transform="translate(0,133)" x2="-5" y2="0" stroke="#888" stroke-width="1" opacity="1"/><line transform="translate(0,107)" x2="-5" y2="0" stroke="#888" stroke-width="1" opacity="1"/><line transform="translate(0,80)" x2="-5" y2="0" stroke="#888" stroke-width="1" opacity="1"/><line transform="translate(0,53)" x2="-5" y2="0" stroke="#888" stroke-width="1" opacity="1"/><line transform="translate(0,27)" x2="-5" y2="0" stroke="#888" stroke-width="1" opacity="1"/><line transform="translate(0,0)" x2="-5" y2="0" stroke="#888" stroke-width="1" opacity="1"/></g><g class="mark-text role-axis-label" pointer-events="none"><text text-anchor="end" transform="translate(-7,189.66666666666666)" font-family="sans-serif" font-size="10px" fill="#000" opacity="1">1e-14</text><text text-anchor="end" transform="translate(-7,163)" font-family="sans-serif" font-size="10px" fill="#000" opacity="1">1e-12</text><text text-anchor="end" transform="translate(-7,136.33333333333334)" font-family="sans-serif" font-size="10px" fill="#000" opacity="1">1e-10</text><text text-anchor="end" transform="translate(-7,109.66666666666669)" font-family="sans-serif" font-size="10px" fill="#000" opacity="1">1e-8</text><text text-anchor="end" transform="translate(-7,83)" font-family="sans-serif" font-size="10px" fill="#000" opacity="1">1e-6</text><text text-anchor="end" transform="translate(-7,56.33333333333332)" font-family="sans-serif" font-size="10px" fill="#000" opacity="1">1e-4</text><text text-anchor="end" transform="translate(-7,29.66666666666666)" font-family="sans-serif" font-size="10px" fill="#000" opacity="1">1e-2</text><text text-anchor="end" transform="translate(-7,3)" font-family="sans-serif" font-size="10px" fill="#000" opacity="1">1e+0</text></g><g class="mark-rule role-axis-domain" pointer-events="none"><line transform="translate(0,200)" x2="0" y2="-200" stroke="#888" stroke-width="1" opacity="1"/></g><g class="mark-text role-axis-title" pointer-events="none"><text text-anchor="middle" transform="translate(-36.576171875,100) rotate(-90) translate(0,-2)" font-family="sans-serif" font-size="11px" font-weight="bold" fill="#000" opacity="1">rel_res_Linf</text></g></g><path class="foreground" aria-hidden="true" d="" pointer-events="none" display="none"/></g></g><g class="mark-group role-scope child_concat_0_pathgroup" role="graphics-object" aria-roledescription="group mark container"><g transform="translate(0,0)"><path class="background" aria-hidden="true" d="M0,0h200v200h-200Z"/><g><g class="mark-line role-mark child_concat_0_marks" role="graphics-object" aria-roledescription="line mark container"><path aria-label="vcycles: 0; rel_res_Linf: 1e+0; Cells (depth): 4,096 (lev=4)" role="graphics-symbol" aria-roledescription="line mark" d="M0,0L11.111,15.459L22.222,32.569L33.333,46.001L44.444,58.755L55.556,71.739L66.667,84.654L77.778,96.884L88.889,107.116L100,116.388L111.111,124.678L122.222,132.65L133.333,140.671L144.444,148.715L155.556,156.765L166.667,164.805L177.778,172.848L188.889,180.98L200,188.123" stroke="#4c78a8" stroke-width="3"/></g></g><path class="foreground" aria-hidden="true" d="" display="none"/></g><g transform="translate(0,0)"><path class="background" aria-hidden="true" d="M0,0h200v200h-200Z"/><g><g class="mark-line role-mark child_concat_0_marks" role="graphics-object" aria-roledescription="line mark container"><path aria-label="vcycles: 0; rel_res_Linf: 1e+0; Cells (depth): 262,144 (lev=6)" role="graphics-symbol" aria-roledescription="line mark" d="M0,0L11.111,23.303L22.222,47.261L33.333,60.9L44.444,73.04L55.556,85.109L66.667,97.171L77.778,109.2L88.889,121.142L100,132.859L111.111,144.035L122.222,153.907L133.333,162.378L144.444,169.389L155.556,175.199L166.667,178.329L177.778,180.232L188.889,181.484" stroke="#f58518" stroke-width="3"/></g></g><path class="foreground" aria-hidden="true" d="" display="none"/></g></g></g><path class="foreground" aria-hidden="true" d="" display="none"/></g></g><g class="mark-group role-scope child_concat_1_group" role="graphics-object" aria-roledescription="group mark container"><g transform="translate(0,255)"><path class="background" aria-hidden="true" d="M0.5,0.5h200v0h-200Z" stroke="#ddd"/><g><g class="mark-group role-axis" aria-hidden="true"><g transform="translate(0.5,0.5)"><path class="background" aria-hidden="true" d="M0,0h0v0h0Z" pointer-events="none"/><g><g class="mark-rule role-axis-grid" pointer-events="none"><line transform="translate(0,0)" x2="0" y2="-40" stroke="#ddd" stroke-width="1" opacity="1"/><line transform="translate(56,0)" x2="0" y2="-40" stroke="#ddd" stroke-width="1" opacity="1"/><line transform="translate(111,0)" x2="0" y2="-40" stroke="#ddd" stroke-width="1" opacity="1"/><line transform="translate(167,0)" x2="0" y2="-40" stroke="#ddd" stroke-width="1" opacity="1"/></g></g><path class="foreground" aria-hidden="true" d="" pointer-events="none" display="none"/></g></g><g class="mark-group role-axis" role="graphics-symbol" aria-roledescription="axis" aria-label="X-axis for a linear scale with values from 0 to 18"><g transform="translate(0.5,0.5)"><path class="background" aria-hidden="true" d="M0,0h0v0h0Z" pointer-events="none"/><g><g class="mark-rule role-axis-tick" pointer-events="none"><line transform="translate(0,0)" x2="0" y2="5" stroke="#888" stroke-width="1" opacity="1"/><line transform="translate(56,0)" x2="0" y2="5" stroke="#888" stroke-width="1" opacity="1"/><line transform="translate(111,0)" x2="0" y2="5" stroke="#888" stroke-width="1" opacity="1"/><line transform="translate(167,0)" x2="0" y2="5" stroke="#888" stroke-width="1" opacity="1"/></g><g class="mark-rule role-axis-domain" pointer-events="none"><line transform="translate(0,0)" x2="200" y2="0" stroke="#888" stroke-width="1" opacity="1"/></g></g><path class="foreground" aria-hidden="true" d="" pointer-events="none" display="none"/></g></g><g class="mark-group role-axis" role="graphics-symbol" aria-roledescription="axis" aria-label="Y-axis for a discrete scale with 2 values: 262,144 (lev=6), 4,096 (lev=4)"><g transform="translate(0.5,0.5)"><path class="background" aria-hidden="true" d="M0,0h0v0h0Z" pointer-events="none"/><g><g class="mark-rule role-axis-tick" pointer-events="none"><line transform="translate(0,10)" x2="-5" y2="0" stroke="#888" stroke-width="1" opacity="1"/><line transform="translate(0,30)" x2="-5" y2="0" stroke="#888" stroke-width="1" opacity="1"/></g><g class="mark-text role-axis-label" pointer-events="none"><text text-anchor="end" transform="translate(-7,12.5)" font-family="sans-serif" font-size="10px" fill="#000" opacity="1">262,144 (lev=6)</text><text text-anchor="end" transform="translate(-7,32.5)" font-family="sans-serif" font-size="10px" fill="#000" opacity="1">4,096 (lev=4)</text></g><g class="mark-rule role-axis-domain" pointer-events="none"><line transform="translate(0,0)" x2="0" y2="40" stroke="#888" stroke-width="1" opacity="1"/></g></g><path class="foreground" aria-hidden="true" d="" pointer-events="none" display="none"/></g></g><g class="mark-rect role-mark child_concat_1_marks" role="graphics-object" aria-roledescription="rect mark container"><path aria-label="Max of vcycles: 18; Cells (depth): 4,096 (lev=4)" role="graphics-symbol" aria-roledescription="bar" d="M0,21h200v18h-200Z" fill="#4c78a8"/><path aria-label="Max of vcycles: 17; Cells (depth): 262,144 (lev=6)" role="graphics-symbol" aria-roledescription="bar" d="M0,1h188.88888888888889v18h-188.88888888888889Z" fill="#4c78a8"/></g></g><path class="foreground" aria-hidden="true" d="" display="none"/></g></g><g class="mark-group role-title"><g transform="translate(0,-26)"><path class="background" aria-hidden="true" d="M0,0h0v0h0Z" pointer-events="none"/><g><g class="mark-text role-title-text" role="graphics-symbol" aria-roledescription="title" aria-label="Title text 'standalone_gmg'" pointer-events="none"><text text-anchor="middle" transform="translate(0,8)" font-family="sans-serif" font-size="10px" fill="#000" opacity="1">standalone_gmg</text></g></g><path class="foreground" aria-hidden="true" d="" pointer-events="none" display="none"/></g></g></g><path class="foreground" aria-hidden="true" d="" display="none"/></g><g transform="translate(302,0)"><path class="background" aria-hidden="true" d="M0,0h0v0h0Z"/><g><g class="mark-group role-scope child_concat_0_group" role="graphics-object" aria-roledescription="group mark container"><g transform="translate(0,0)"><path class="background" aria-hidden="true" d="M0.5,0.5h200v200h-200Z" stroke="#ddd"/><g><g class="mark-group role-axis" aria-hidden="true"><g transform="translate(0.5,200.5)"><path class="background" aria-hidden="true" d="M0,0h0v0h0Z" pointer-events="none"/><g><g class="mark-rule role-axis-grid" pointer-events="none"><line transform="translate(0,-200)" x2="0" y2="200" stroke="#ddd" stroke-width="1" opacity="1"/><line transform="translate(56,-200)" x2="0" y2="200" stroke="#ddd" stroke-width="1" opacity="1"/><line transform="translate(111,-200)" x2="0" y2="200" stroke="#ddd" stroke-width="1" opacity="1"/><line transform="translate(167,-200)" x2="0" y2="200" stroke="#ddd" stroke-width="1" opacity="1"/></g></g><path class="foreground" aria-hidden="true" d="" pointer-events="none" display="none"/></g></g><g class="mark-group role-axis" aria-hidden="true"><g transform="translate(0.5,0.5)"><path class="background" aria-hidden="true" d="M0,0h0v0h0Z" pointer-events="none"/><g><g class="mark-rule role-axis-grid" pointer-events="none"><line transform="translate(0,187)" x2="200" y2="0" stroke="#ddd" stroke-width="1" opacity="1"/><line transform="translate(0,160)" x2="200" y2="0" stroke="#ddd" stroke-width="1" opacity="1"/><line transform="translate(0,133)" x2="200" y2="0" stroke="#ddd" stroke-width="1" opacity="1"/><line transform="translate(0,107)" x2="200" y2="0" stroke="#ddd" stroke-width="1" opacity="1"/><line transform="translate(0,80)" x2="200" y2="0" stroke="#ddd" stroke-width="1" opacity="1"/><line transform="translate(0,53)" x2="200" y2="0" stroke="#ddd" stroke-width="1" opacity="1"/><line transform="translate(0,27)" x2="200" y2="0" stroke="#ddd" stroke-width="1" opacity="1"/><line transform="translate(0,0)" x2="200" y2="0" stroke="#ddd" stroke-width="1" opacity="1"/></g></g><path class="foreground" aria-hidden="true" d="" pointer-events="none" display="none"/></g></g><g class="mark-group role-axis" role="graphics-symbol" aria-roledescription="axis" aria-label="X-axis titled 'vcycles' for a linear scale with values from 0 to 18"><g transform="translate(0.5,200.5)"><path class="background" aria-hidden="true" d="M0,0h0v0h0Z" pointer-events="none"/><g><g class="mark-rule role-axis-tick" pointer-events="none"><line transform="translate(0,0)" x2="0" y2="5" stroke="#888" stroke-width="1" opacity="1"/><line transform="translate(56,0)" x2="0" y2="5" stroke="#888" stroke-width="1" opacity="1"/><line transform="translate(111,0)" x2="0" y2="5" stroke="#888" stroke-width="1" opacity="1"/><line transform="translate(167,0)" x2="0" y2="5" stroke="#888" stroke-width="1" opacity="1"/></g><g class="mark-text role-axis-label" pointer-events="none"><text text-anchor="start" transform="translate(0,15)" font-family="sans-serif" font-size="10px" fill="#000" opacity="1">0</text><text text-anchor="middle" transform="translate(55.55555555555556,15)" font-family="sans-serif" font-size="10px" fill="#000" opacity="1">5</text><text text-anchor="middle" transform="translate(111.11111111111111,15)" font-family="sans-serif" font-size="10px" fill="#000" opacity="1">10</text><text text-anchor="middle" transform="translate(166.66666666666669,15)" font-family="sans-serif" font-size="10px" fill="#000" opacity="1">15</text></g><g class="mark-rule role-axis-domain" pointer-events="none"><line transform="translate(0,0)" x2="200" y2="0" stroke="#888" stroke-width="1" opacity="1"/></g><g class="mark-text role-axis-title" pointer-events="none"><text text-anchor="middle" transform="translate(100,30)" font-family="sans-serif" font-size="11px" font-weight="bold" fill="#000" opacity="1">vcycles</text></g></g><path class="foreground" aria-hidden="true" d="" pointer-events="none" display="none"/></g></g><g class="mark-group role-axis" role="graphics-symbol" aria-roledescription="axis" aria-label="Y-axis titled 'rel_res_Linf' for a log scale with values from 1e-15 to 1e+0"><g transform="translate(0.5,0.5)"><path class="background" aria-hidden="true" d="M0,0h0v0h0Z" pointer-events="none"/><g><g class="mark-rule role-axis-tick" pointer-events="none"><line transform="translate(0,187)" x2="-5" y2="0" stroke="#888" stroke-width="1" opacity="1"/><line transform="translate(0,160)" x2="-5" y2="0" stroke="#888" stroke-width="1" opacity="1"/><line transform="translate(0,133)" x2="-5" y2="0" stroke="#888" stroke-width="1" opacity="1"/><line transform="translate(0,107)" x2="-5" y2="0" stroke="#888" stroke-width="1" opacity="1"/><line transform="translate(0,80)" x2="-5" y2="0" stroke="#888" stroke-width="1" opacity="1"/><line transform="translate(0,53)" x2="-5" y2="0" stroke="#888" stroke-width="1" opacity="1"/><line transform="translate(0,27)" x2="-5" y2="0" stroke="#888" stroke-width="1" opacity="1"/><line transform="translate(0,0)" x2="-5" y2="0" stroke="#888" stroke-width="1" opacity="1"/></g><g class="mark-text role-axis-label" pointer-events="none"><text text-anchor="end" transform="translate(-7,189.66666666666666)" font-family="sans-serif" font-size="10px" fill="#000" opacity="1">1e-14</text><text text-anchor="end" transform="translate(-7,163)" font-family="sans-serif" font-size="10px" fill="#000" opacity="1">1e-12</text><text text-anchor="end" transform="translate(-7,136.33333333333334)" font-family="sans-serif" font-size="10px" fill="#000" opacity="1">1e-10</text><text text-anchor="end" transform="translate(-7,109.66666666666669)" font-family="sans-serif" font-size="10px" fill="#000" opacity="1">1e-8</text><text text-anchor="end" transform="translate(-7,83)" font-family="sans-serif" font-size="10px" fill="#000" opacity="1">1e-6</text><text text-anchor="end" transform="translate(-7,56.33333333333332)" font-family="sans-serif" font-size="10px" fill="#000" opacity="1">1e-4</text><text text-anchor="end" transform="translate(-7,29.66666666666666)" font-family="sans-serif" font-size="10px" fill="#000" opacity="1">1e-2</text><text text-anchor="end" transform="translate(-7,3)" font-family="sans-serif" font-size="10px" fill="#000" opacity="1">1e+0</text></g><g class="mark-rule role-axis-domain" pointer-events="none"><line transform="translate(0,200)" x2="0" y2="-200" stroke="#888" stroke-width="1" opacity="1"/></g><g class="mark-text role-axis-title" pointer-events="none"><text text-anchor="middle" transform="translate(-36.576171875,100) rotate(-90) translate(0,-2)" font-family="sans-serif" font-size="11px" font-weight="bold" fill="#000" opacity="1">rel_res_Linf</text></g></g><path class="foreground" aria-hidden="true" d="" pointer-events="none" display="none"/></g></g><g class="mark-group role-scope child_concat_0_pathgroup" role="graphics-object" aria-roledescription="group mark container"><g transform="translate(0,0)"><path class="background" aria-hidden="true" d="M0,0h200v200h-200Z"/><g><g class="mark-line role-mark child_concat_0_marks" role="graphics-object" aria-roledescription="line mark container"><path aria-label="vcycles: 0; rel_res_Linf: 1e+0; Cells (depth): 4,096 (lev=4)" role="graphics-symbol" aria-roledescription="line mark" d="M0,0L11.111,15.459L22.222,32.569L33.333,46.001L44.444,58.755L55.556,71.739L66.667,84.654L77.778,96.884L88.889,107.116L100,116.388L111.111,124.678L122.222,132.65L133.333,140.671L144.444,148.714L155.556,156.762L166.667,164.814L177.778,172.8L188.889,180.679L200,188.42" stroke="#4c78a8" stroke-width="3"/></g></g><path class="foreground" aria-hidden="true" d="" display="none"/></g><g transform="translate(0,0)"><path class="background" aria-hidden="true" d="M0,0h200v200h-200Z"/><g><g class="mark-line role-mark child_concat_0_marks" role="graphics-object" aria-roledescription="line mark container"><path aria-label="vcycles: 0; rel_res_Linf: 1e+0; Cells (depth): 262,144 (lev=6)" role="graphics-symbol" aria-roledescription="line mark" d="M0,0L11.111,23.303L22.222,47.261L33.333,60.9L44.444,73.04L55.556,85.109L66.667,97.171L77.778,109.2L88.889,121.142L100,132.859L111.111,144.027L122.222,153.907L133.333,162.223L144.444,169.13L155.556,174.871L166.667,178.566L177.778,179.458L188.889,180.94" stroke="#f58518" stroke-width="3"/></g></g><path class="foreground" aria-hidden="true" d="" display="none"/></g></g></g><path class="foreground" aria-hidden="true" d="" display="none"/></g></g><g class="mark-group role-scope child_concat_1_group" role="graphics-object" aria-roledescription="group mark container"><g transform="translate(0,255)"><path class="background" aria-hidden="true" d="M0.5,0.5h200v0h-200Z" stroke="#ddd"/><g><g class="mark-group role-axis" aria-hidden="true"><g transform="translate(0.5,0.5)"><path class="background" aria-hidden="true" d="M0,0h0v0h0Z" pointer-events="none"/><g><g class="mark-rule role-axis-grid" pointer-events="none"><line transform="translate(0,0)" x2="0" y2="-40" stroke="#ddd" stroke-width="1" opacity="1"/><line transform="translate(56,0)" x2="0" y2="-40" stroke="#ddd" stroke-width="1" opacity="1"/><line transform="translate(111,0)" x2="0" y2="-40" stroke="#ddd" stroke-width="1" opacity="1"/><line transform="translate(167,0)" x2="0" y2="-40" stroke="#ddd" stroke-width="1" opacity="1"/></g></g><path class="foreground" aria-hidden="true" d="" pointer-events="none" display="none"/></g></g><g class="mark-group role-axis" role="graphics-symbol" aria-roledescription="axis" aria-label="X-axis for a linear scale with values from 0 to 18"><g transform="translate(0.5,0.5)"><path class="background" aria-hidden="true" d="M0,0h0v0h0Z" pointer-events="none"/><g><g class="mark-rule role-axis-tick" pointer-events="none"><line transform="translate(0,0)" x2="0" y2="5" stroke="#888" stroke-width="1" opacity="1"/><line transform="translate(56,0)" x2="0" y2="5" stroke="#888" stroke-width="1" opacity="1"/><line transform="translate(111,0)" x2="0" y2="5" stroke="#888" stroke-width="1" opacity="1"/><line transform="translate(167,0)" x2="0" y2="5" stroke="#888" stroke-width="1" opacity="1"/></g><g class="mark-rule role-axis-domain" pointer-events="none"><line transform="translate(0,0)" x2="200" y2="0" stroke="#888" stroke-width="1" opacity="1"/></g></g><path class="foreground" aria-hidden="true" d="" pointer-events="none" display="none"/></g></g><g class="mark-group role-axis" role="graphics-symbol" aria-roledescription="axis" aria-label="Y-axis for a discrete scale with 2 values: 262,144 (lev=6), 4,096 (lev=4)"><g transform="translate(0.5,0.5)"><path class="background" aria-hidden="true" d="M0,0h0v0h0Z" pointer-events="none"/><g><g class="mark-rule role-axis-tick" pointer-events="none"><line transform="translate(0,10)" x2="-5" y2="0" stroke="#888" stroke-width="1" opacity="1"/><line transform="translate(0,30)" x2="-5" y2="0" stroke="#888" stroke-width="1" opacity="1"/></g><g class="mark-text role-axis-label" pointer-events="none"><text text-anchor="end" transform="translate(-7,12.5)" font-family="sans-serif" font-size="10px" fill="#000" opacity="1">262,144 (lev=6)</text><text text-anchor="end" transform="translate(-7,32.5)" font-family="sans-serif" font-size="10px" fill="#000" opacity="1">4,096 (lev=4)</text></g><g class="mark-rule role-axis-domain" pointer-events="none"><line transform="translate(0,0)" x2="0" y2="40" stroke="#888" stroke-width="1" opacity="1"/></g></g><path class="foreground" aria-hidden="true" d="" pointer-events="none" display="none"/></g></g><g class="mark-rect role-mark child_concat_1_marks" role="graphics-object" aria-roledescription="rect mark container"><path aria-label="Max of vcycles: 18; Cells (depth): 4,096 (lev=4)" role="graphics-symbol" aria-roledescription="bar" d="M0,21h200v18h-200Z" fill="#4c78a8"/><path aria-label="Max of vcycles: 17; Cells (depth): 262,144 (lev=6)" role="graphics-symbol" aria-roledescription="bar" d="M0,1h188.88888888888889v18h-188.88888888888889Z" fill="#4c78a8"/></g></g><path class="foreground" aria-hidden="true" d="" display="none"/></g></g><g class="mark-group role-title"><g transform="translate(0,-26)"><path class="background" aria-hidden="true" d="M0,0h0v0h0Z" pointer-events="none"/><g><g class="mark-text role-title-text" role="graphics-symbol" aria-roledescription="title" aria-label="Title text 'standalone_hybrid_mg'" pointer-events="none"><text text-anchor="middle" transform="translate(0,8)" font-family="sans-serif" font-size="10px" fill="#000" opacity="1">standalone_hybrid_mg</text></g></g><path class="foreground" aria-hidden="true" d="" pointer-events="none" display="none"/></g></g></g><path class="foreground" aria-hidden="true" d="" display="none"/></g></g><g class="mark-group role-legend" role="graphics-symbol" aria-roledescription="legend" aria-label="Symbol legend titled 'Cells (depth)' for stroke color with 2 values: 4,096 (lev=4), 262,144 (lev=6)"><g transform="translate(524,0)"><path class="background" aria-hidden="true" d="M0,0h87v42h-87Z" pointer-events="none"/><g><g class="mark-group role-legend-entry"><g transform="translate(0,16)"><path class="background" aria-hidden="true" d="M0,0h0v0h0Z" pointer-events="none"/><g><g class="mark-group role-scope" role="graphics-object" aria-roledescription="group mark container"><g transform="translate(0,0)"><path class="background" aria-hidden="true" d="M0,0h86.7705078125v11.5h-86.7705078125Z" pointer-events="none" opacity="1"/><g><g class="mark-symbol role-legend-symbol" pointer-events="none"><path transform="translate(6.5,6.5)" d="M-5,0L5,0" stroke="#4c78a8" stroke-width="3" opacity="1"/></g><g class="mark-text role-legend-label" pointer-events="none"><text text-anchor="start" transform="translate(17,9.5)" font-family="sans-serif" font-size="10px" fill="#000" opacity="1">4,096 (lev=4)</text></g></g><path class="foreground" aria-hidden="true" d="" pointer-events="none" display="none"/></g><g transform="translate(0,14)"><path class="background" aria-hidden="true" d="M0,0h86.7705078125v11.5h-86.7705078125Z" pointer-events="none" opacity="1"/><g><g class="mark-symbol role-legend-symbol" pointer-events="none"><path transform="translate(6.5,6.5)" d="M-5,0L5,0" stroke="#f58518" stroke-width="3" opacity="1"/></g><g class="mark-text role-legend-label" pointer-events="none"><text text-anchor="start" transform="translate(17,9.5)" font-family="sans-serif" font-size="10px" fill="#000" opacity="1">262,144 (lev=6)</text></g></g><path class="foreground" aria-hidden="true" d="" pointer-events="none" display="none"/></g></g></g><path class="foreground" aria-hidden="true" d="" pointer-events="none" display="none"/></g></g><g class="mark-text role-legend-title" pointer-events="none"><text text-anchor="start" transform="translate(0,9)" font-family="sans-serif" font-size="11px" font-weight="bold" fill="#000" opacity="1">Cells (depth)</text></g></g><path class="foreground" aria-hidden="true" d="" pointer-events="none" display="none"/></g></g></g><path class="foreground" aria-hidden="true" d="" display="none"/></g></g></g></svg>