<svg xmlns="http://www.w3.org/2000/svg" xmlns:xlink="http://www.w3.org/1999/xlink" version="1.1" class="marks" width="302" height="338" viewBox="0 0 302 338"><rect width="302" height="338" fill="white"/><g fill="none" stroke-miterlimit="10" transform="translate(91,35)"><g class="mark-group role-frame root" role="graphics-object" aria-roledescription="group mark container"><g transform="translate(0,0)"><path class="background" aria-hidden="true" d="M0,0h0v0h0Z"/><g><g class="mark-group role-row-header row_header" role="graphics-object" aria-roledescription="group mark container"><g transform="translate(-6,0)"><path class="background" aria-hidden="true" d="M0,0h0v60h0Z"/><g><g class="mark-group role-axis" role="graphics-symbol" aria-roledescription="axis" aria-label="Y-axis titled 'V-cycles per 10 digits' for a linear scale with values from 0 to 45"><g transform="translate(0.5,0.5)"><path class="background" aria-hidden="true" d="M0,0h0v0h0Z" pointer-events="none"/><g><g class="mark-rule role-axis-tick" pointer-events="none"><line transform="translate(0,60)" x2="-5" y2="0" stroke="#888" stroke-width="1" opacity="1"/><line transform="translate(0,33)" x2="-5" y2="0" stroke="#888" stroke-width="1" opacity="1"/><line transform="translate(0,7)" x2="-5" y2="0" stroke="#888" stroke-width="1" opacity="1"/></g><g class="mark-text role-axis-label" pointer-events="none"><text text-anchor="end" transform="translate(-7,64)" font-family="Times" font-size="12px" fill="#000" opacity="1">0</text><text text-anchor="end" transform="translate(-7,37.333333333333336)" font-family="Times" font-size="12px" fill="#000" opacity="1">20</text><text text-anchor="end" transform="translate(-7,10.66666666666667)" font-family="Times" font-size="12px" fill="#000" opacity="1">40</text></g><g class="mark-rule role-axis-domain" pointer-events="none"><line transform="translate(0,60)" x2="0" y2="-60" stroke="#888" stroke-width="1" opacity="1"/></g><g class="mark-text role-axis-title" pointer-events="none"><text text-anchor="middle" transform="translate(-55,27)" font-family="Times" font-size="14px" font-weight="normal" fill="#000" opacity="1"><tspan sodipodi:role="line">V-cycles</tspan><tspan sodipodi:role="line" x="0" dy="16">per 10</tspan><tspan sodipodi:role="line" x="0" dy="16">digits</tspan></text></g></g><path class="foreground" aria-hidden="true" d="" pointer-events="none" display="none"/></g></g></g><path class="foreground" aria-hidden="true" d="" display="none"/></g><g transform="translate(-6,67)"><path class="background" aria-hidden="true" d="M0,0h0v60h0Z"/><g><g class="mark-group role-axis" role="graphics-symbol" aria-roledescription="axis" aria-label="Y-axis titled 'V-cycles per 10 digits' for a linear scale with values from 0 to 45"><g transform="translate(0.5,0.5)"><path class="background" aria-hidden="true" d="M0,0h0v0h0Z" pointer-events="none"/><g><g class="mark-rule role-axis-tick" pointer-events="none"><line transform="translate(0,60)" x2="-5" y2="0" stroke="#888" stroke-width="1" opacity="1"/><line transform="translate(0,33)" x2="-5" y2="0" stroke="#888" stroke-width="1" opacity="1"/><line transform="translate(0,7)" x2="-5" y2="0" stroke="#888" stroke-width="1" opacity="1"/></g><g class="mark-text role-axis-label" pointer-events="none"><text text-anchor="end" transform="translate(-7,64)" font-family="Times" font-size="12px" fill="#000" opacity="1">0</text><text text-anchor="end" transform="translate(-7,37.333333333333336)" font-family="Times" font-size="12px" fill="#000" opacity="1">20</text><text text-anchor="end" transform="translate(-7,10.66666666666667)" font-family="Times" font-size="12px" fill="#000" opacity="1">40</text></g><g class="mark-rule role-axis-domain" pointer-events="none"><line transform="translate(0,60)" x2="0" y2="-60" stroke="#888" stroke-width="1" opacity="1"/></g><g class="mark-text role-axis-title" pointer-events="none"><text text-anchor="middle" transform="translate(-55,27)" font-family="Times" font-size="14px" font-weight="normal" fill="#000" opacity="1"><tspan sodipodi:role="line">V-cycles</tspan><tspan sodipodi:role="line" x="0" dy="16">per 10</tspan><tspan sodipodi:role="line" x="0" dy="16">digits</tspan></text></g></g><path class="foreground" aria-hidden="true" d="" pointer-events="none" display="none"/></g></g></g><path class="foreground" aria-hidden="true" d="" display="none"/></g><g transform="translate(-6,134)"><path class="background" aria-hidden="true" d="M0,0h0v60h0Z"/><g><g class="mark-group role-axis" role="graphics-symbol" aria-roledescription="axis" aria-label="Y-axis titled 'V-cycles per 10 digits' for a linear scale with values from 0 to 45"><g transform="translate(0.5,0.5)"><path class="background" aria-hidden="true" d="M0,0h0v0h0Z" pointer-events="none"/><g><g class="mark-rule role-axis-tick" pointer-events="none"><line transform="translate(0,60)" x2="-5" y2="0" stroke="#888" stroke-width="1" opacity="1"/><line transform="translate(0,33)" x2="-5" y2="0" stroke="#888" stroke-width="1" opacity="1"/><line transform="translate(0,7)" x2="-5" y2="0" stroke="#888" stroke-width="1" opacity="1"/></g><g class="mark-text role-axis-label" pointer-events="none"><text text-anchor="end" transform="translate(-7,64)" font-family="Times" font-size="12px" fill="#000" opacity="1">0</text><text text-anchor="end" transform="translate(-7,37.333333333333336)" font-family="Times" font-size="12px" fill="#000" opacity="1">20</text><text text-anchor="end" transform="translate(-7,10.66666666666667)" font-family="Times" font-size="12px" fill="#000" opacity="1">40</text></g><g class="mark-rule role-axis-domain" pointer-events="none"><line transform="translate(0,60)" x2="0" y2="-60" stroke="#888" stroke-width="1" opacity="1"/></g><g class="mark-text role-axis-title" pointer-events="none"><text text-anchor="middle" transform="translate(-55,27)" font-family="Times" font-size="14px" font-weight="normal" fill="#000" opacity="1"><tspan sodipodi:role="line">V-cycles</tspan><tspan sodipodi:role="line" x="0" dy="16">per 10</tspan><tspan sodipodi:role="line" x="0" dy="16">digits</tspan></text></g></g><path class="foreground" aria-hidden="true" d="" pointer-events="none" display="none"/></g></g></g><path class="foreground" aria-hidden="true" d="" display="none"/></g><g transform="translate(-6,201)"><path class="background" aria-hidden="true" d="M0,0h0v60h0Z"/><g><g class="mark-group role-axis" role="graphics-symbol" aria-roledescription="axis" aria-label="Y-axis titled 'V-cycles per 10 digits' for a linear scale with values from 0 to 45"><g transform="translate(0.5,0.5)"><path class="background" aria-hidden="true" d="M0,0h0v0h0Z" pointer-events="none"/><g><g class="mark-rule role-axis-tick" pointer-events="none"><line transform="translate(0,60)" x2="-5" y2="0" stroke="#888" stroke-width="1" opacity="1"/><line transform="translate(0,33)" x2="-5" y2="0" stroke="#888" stroke-width="1" opacity="1"/><line transform="translate(0,7)" x2="-5" y2="0" stroke="#888" stroke-width="1" opacity="1"/></g><g class="mark-text role-axis-label" pointer-events="none"><text text-anchor="end" transform="translate(-7,64)" font-family="Times" font-size="12px" fill="#000" opacity="1">0</text><text text-anchor="end" transform="translate(-7,37.333333333333336)" font-family="Times" font-size="12px" fill="#000" opacity="1">20</text><text text-anchor="end" transform="translate(-7,10.66666666666667)" font-family="Times" font-size="12px" fill="#000" opacity="1">40</text></g><g class="mark-rule role-axis-domain" pointer-events="none"><line transform="translate(0,60)" x2="0" y2="-60" stroke="#888" stroke-width="1" opacity="1"/></g><g class="mark-text role-axis-title" pointer-events="none"><text text-anchor="middle" transform="translate(-55,27)" font-family="Times" font-size="14px" font-weight="normal" fill="#000" opacity="1"><tspan sodipodi:role="line">V-cycles</tspan><tspan sodipodi:role="line" x="0" dy="16">per 10</tspan><tspan sodipodi:role="line" x="0" dy="16">digits</tspan></text></g></g><path class="foreground" aria-hidden="true" d="" pointer-events="none" display="none"/></g></g></g><path class="foreground" aria-hidden="true" d="" display="none"/></g></g><g class="mark-group role-column-footer column_footer" role="graphics-object" aria-roledescription="group mark container"><g transform="translate(0,262)"><path class="background" aria-hidden="true" d="M0,0h200v0h-200Z"/><g><g class="mark-group role-axis" role="graphics-symbol" aria-roledescription="axis" aria-label="X-axis titled 'Cells' for a log scale with values from 4,096 to 262,144"><g transform="translate(0.5,0.5)"><path class="background" aria-hidden="true" d="M0,0h0v0h0Z" pointer-events="none"/><g><g class="mark-rule role-axis-tick" pointer-events="none"><line transform="translate(0,0)" x2="0" y2="5" stroke="#888" stroke-width="1" opacity="1"/><line transform="translate(100,0)" x2="0" y2="5" stroke="#888" stroke-width="1" opacity="1"/><line transform="translate(200,0)" x2="0" y2="5" stroke="#888" stroke-width="1" opacity="1"/></g><g class="mark-text role-axis-label" pointer-events="none"><text text-anchor="start" transform="translate(0,16)" font-family="Times" font-size="12px" fill="#000" opacity="1">4,096</text><text text-anchor="middle" transform="translate(100,16)" font-family="Times" font-size="12px" fill="#000" opacity="1">32,768</text><text text-anchor="end" transform="translate(200,16)" font-family="Times" font-size="12px" fill="#000" opacity="1">262,144</text></g><g class="mark-rule role-axis-domain" pointer-events="none"><line transform="translate(0,0)" x2="200" y2="0" stroke="#888" stroke-width="1" opacity="1"/></g><g class="mark-text role-axis-title" pointer-events="none"><text text-anchor="middle" transform="translate(100,33)" font-family="Times" font-size="14px" font-weight="normal" fill="#000" opacity="1">Cells</text></g></g><path class="foreground" aria-hidden="true" d="" pointer-events="none" display="none"/></g></g></g><path class="foreground" aria-hidden="true" d="" display="none"/></g></g><g class="mark-group role-scope cell" role="graphics-object" aria-roledescription="group mark container"><g transform="translate(0,0)"><path class="background" aria-hidden="true" d="M0.5,0.5h200v60h-200Z" stroke="#ddd"/><g><g class="mark-group role-axis" aria-hidden="true"><g transform="translate(0.5,60.5)"><path class="background" aria-hidden="true" d="M0,0h0v0h0Z" pointer-events="none"/><g><g class="mark-rule role-axis-grid" pointer-events="none"><line transform="translate(0,-60)" x2="0" y2="60" stroke="#ddd" stroke-width="1" opacity="1"/><line transform="translate(100,-60)" x2="0" y2="60" stroke="#ddd" stroke-width="1" opacity="1"/><line transform="translate(200,-60)" x2="0" y2="60" stroke="#ddd" stroke-width="1" opacity="1"/></g></g><path class="foreground" aria-hidden="true" d="" pointer-events="none" display="none"/></g></g><g class="mark-group role-axis" aria-hidden="true"><g transform="translate(0.5,0.5)"><path class="background" aria-hidden="true" d="M0,0h0v0h0Z" pointer-events="none"/><g><g class="mark-rule role-axis-grid" pointer-events="none"><line transform="translate(0,60)" x2="200" y2="0" stroke="#ddd" stroke-width="1" opacity="1"/><line transform="translate(0,33)" x2="200" y2="0" stroke="#ddd" stroke-width="1" opacity="1"/><line transform="translate(0,7)" x2="200" y2="0" stroke="#ddd" stroke-width="1" opacity="1"/></g></g><path class="foreground" aria-hidden="true" d="" pointer-events="none" display="none"/></g></g><g class="mark-group role-scope child_layer_0_pathgroup" role="graphics-object" aria-roledescription="group mark container"><g transform="translate(0,0)"><path class="background" aria-hidden="true" d="M0,0h200v60h-200Z"/><g><g class="mark-line role-mark child_layer_0_marks" role="graphics-object" aria-roledescription="line mark container"><path aria-label="Cells: 4096; V-cycles, per 10, digits: 8.29858667766; solver: cg+amg; stretch: Anisotropy(1:1:1)" role="graphics-symbol" aria-roledescription="line mark" d="M0,48.935L100,48.922" stroke="#e41a1c" stroke-width="3"/></g></g><path class="foreground" aria-hidden="true" d="" display="none"/></g><g transform="translate(0,0)"><path class="background" aria-hidden="true" d="M0,0h200v60h-200Z"/><g><g class="mark-line role-mark child_layer_0_marks" role="graphics-object" aria-roledescription="line mark container"><path aria-label="Cells: 4096; V-cycles, per 10, digits: 8.20976210675; solver: cg+gmg; stretch: Anisotropy(1:1:1)" role="graphics-symbol" aria-roledescription="line mark" d="M0,49.054L100,49.349L200,49.404" stroke="#377eb8" stroke-width="3"/></g></g><path class="foreground" aria-hidden="true" d="" display="none"/></g><g transform="translate(0,0)"><path class="background" aria-hidden="true" d="M0,0h200v60h-200Z"/><g><g class="mark-line role-mark child_layer_0_marks" role="graphics-object" aria-roledescription="line mark container"><path aria-label="Cells: 4096; V-cycles, per 10, digits: 8.20976210675; solver: cg+hybrid_mg; stretch: Anisotropy(1:1:1)" role="graphics-symbol" aria-roledescription="line mark" d="M0,49.054L100,49.349L200,49.404" stroke="#4daf4a" stroke-width="3"/></g></g><path class="foreground" aria-hidden="true" d="" display="none"/></g></g><g class="mark-symbol role-mark child_layer_1_marks" role="graphics-object" aria-roledescription="symbol mark container"><path aria-label="Cells: 4096; V-cycles, per 10, digits: 8.29858667766; solver: cg+amg; stretch: Anisotropy(1:1:1)" role="graphics-symbol" aria-roledescription="point" transform="translate(0,48.93521776312608)" d="M4.33,0A4.33,4.33,0,1,1,-4.33,0A4.33,4.33,0,1,1,4.33,0" fill="#e41a1c" stroke-width="2" opacity="1"/><path aria-label="Cells: 32768; V-cycles, per 10, digits: 8.30858808411; solver: cg+amg; stretch: Anisotropy(1:1:1)" role="graphics-symbol" aria-roledescription="point" transform="translate(100,48.921882554524615)" d="M4.33,0A4.33,4.33,0,1,1,-4.33,0A4.33,4.33,0,1,1,4.33,0" fill="#e41a1c" stroke-width="2" opacity="1"/><path aria-label="Cells: 4096; V-cycles, per 10, digits: 8.20976210675; solver: cg+gmg; stretch: Anisotropy(1:1:1)" role="graphics-symbol" aria-roledescription="point" transform="translate(0,49.05365052433947)" d="M-4.33,-4.33h8.66v8.66h-8.66Z" fill="#377eb8" stroke-width="2" opacity="1"/><path aria-label="Cells: 32768; V-cycles, per 10, digits: 7.98859113655; solver: cg+gmg; stretch: Anisotropy(1:1:1)" role="graphics-symbol" aria-roledescription="point" transform="translate(100,49.34854515126203)" d="M-4.33,-4.33h8.66v8.66h-8.66Z" fill="#377eb8" stroke-width="2" opacity="1"/><path aria-label="Cells: 262144; V-cycles, per 10, digits: 7.94728623346; solver: cg+gmg; stretch: Anisotropy(1:1:1)" role="graphics-symbol" aria-roledescription="point" transform="translate(200,49.40361835538076)" d="M-4.33,-4.33h8.66v8.66h-8.66Z" fill="#377eb8" stroke-width="2" opacity="1"/><path aria-label="Cells: 4096; V-cycles, per 10, digits: 8.20976210675; solver: cg+hybrid_mg; stretch: Anisotropy(1:1:1)" role="graphics-symbol" aria-roledescription="point" transform="translate(0,49.05365052433624)" d="M0,-3.75L-4.33,3.75L4.33,3.75Z" fill="#4daf4a" stroke-width="2" opacity="1"/><path aria-label="Cells: 32768; V-cycles, per 10, digits: 7.98859113655; solver: cg+hybrid_mg; stretch: Anisotropy(1:1:1)" role="graphics-symbol" aria-roledescription="point" transform="translate(100,49.34854515126248)" d="M0,-3.75L-4.33,3.75L4.33,3.75Z" fill="#4daf4a" stroke-width="2" opacity="1"/><path aria-label="Cells: 262144; V-cycles, per 10, digits: 7.94728623347; solver: cg+hybrid_mg; stretch: Anisotropy(1:1:1)" role="graphics-symbol" aria-roledescription="point" transform="translate(200,49.40361835537865)" d="M0,-3.75L-4.33,3.75L4.33,3.75Z" fill="#4daf4a" stroke-width="2" opacity="1"/></g><g class="mark-group role-title"><g transform="translate(0,8)"><path class="background" aria-hidden="true" d="M0,0h0v0h0Z" pointer-events="none"/><g><g class="mark-text role-title-text" role="graphics-symbol" aria-roledescription="title" aria-label="Title text 'Anisotropy(1:1:1)'" pointer-events="none"><text text-anchor="start" transform="translate(0,9)" font-family="Times" font-size="12px" fill="#000" opacity="1">Anisotropy(1:1:1)</text></g></g><path class="foreground" aria-hidden="true" d="" pointer-events="none" display="none"/></g></g></g><path class="foreground" aria-hidden="true" d="" display="none"/></g><g transform="translate(0,67)"><path class="background" aria-hidden="true" d="M0.5,0.5h200v60h-200Z" stroke="#ddd"/><g><g class="mark-group role-axis" aria-hidden="true"><g transform="translate(0.5,60.5)"><path class="background" aria-hidden="true" d="M0,0h0v0h0Z" pointer-events="none"/><g><g class="mark-rule role-axis-grid" pointer-events="none"><line transform="translate(0,-60)" x2="0" y2="60" stroke="#ddd" stroke-width="1" opacity="1"/><line transform="translate(100,-60)" x2="0" y2="60" stroke="#ddd" stroke-width="1" opacity="1"/><line transform="translate(200,-60)" x2="0" y2="60" stroke="#ddd" stroke-width="1" opacity="1"/></g></g><path class="foreground" aria-hidden="true" d="" pointer-events="none" display="none"/></g></g><g class="mark-group role-axis" aria-hidden="true"><g transform="translate(0.5,0.5)"><path class="background" aria-hidden="true" d="M0,0h0v0h0Z" pointer-events="none"/><g><g class="mark-rule role-axis-grid" pointer-events="none"><line transform="translate(0,60)" x2="200" y2="0" stroke="#ddd" stroke-width="1" opacity="1"/><line transform="translate(0,33)" x2="200" y2="0" stroke="#ddd" stroke-width="1" opacity="1"/><line transform="translate(0,7)" x2="200" y2="0" stroke="#ddd" stroke-width="1" opacity="1"/></g></g><path class="foreground" aria-hidden="true" d="" pointer-events="none" display="none"/></g></g><g class="mark-group role-scope child_layer_0_pathgroup" role="graphics-object" aria-roledescription="group mark container"><g transform="translate(0,0)"><path class="background" aria-hidden="true" d="M0,0h200v60h-200Z"/><g><g class="mark-line role-mark child_layer_0_marks" role="graphics-object" aria-roledescription="line mark container"><path aria-label="Cells: 4096; V-cycles, per 10, digits: 9.10372217202; solver: cg+amg; stretch: Anisotropy(1:1:2)" role="graphics-symbol" aria-roledescription="line mark" d="M0,47.862L100,47.724" stroke="#e41a1c" stroke-width="3"/></g></g><path class="foreground" aria-hidden="true" d="" display="none"/></g><g transform="translate(0,0)"><path class="background" aria-hidden="true" d="M0,0h200v60h-200Z"/><g><g class="mark-line role-mark child_layer_0_marks" role="graphics-object" aria-roledescription="line mark container"><path aria-label="Cells: 4096; V-cycles, per 10, digits: 11.4541571576; solver: cg+gmg; stretch: Anisotropy(1:1:2)" role="graphics-symbol" aria-roledescription="line mark" d="M0,44.728L100,42.655L200,41.923" stroke="#377eb8" stroke-width="3"/></g></g><path class="foreground" aria-hidden="true" d="" display="none"/></g><g transform="translate(0,0)"><path class="background" aria-hidden="true" d="M0,0h200v60h-200Z"/><g><g class="mark-line role-mark child_layer_0_marks" role="graphics-object" aria-roledescription="line mark container"><path aria-label="Cells: 4096; V-cycles, per 10, digits: 11.4541571577; solver: cg+hybrid_mg; stretch: Anisotropy(1:1:2)" role="graphics-symbol" aria-roledescription="line mark" d="M0,44.728L100,42.655L200,41.955" stroke="#4daf4a" stroke-width="3"/></g></g><path class="foreground" aria-hidden="true" d="" display="none"/></g></g><g class="mark-symbol role-mark child_layer_1_marks" role="graphics-object" aria-roledescription="symbol mark container"><path aria-label="Cells: 4096; V-cycles, per 10, digits: 9.10372217202; solver: cg+amg; stretch: Anisotropy(1:1:2)" role="graphics-symbol" aria-roledescription="point" transform="translate(0,47.86170377063959)" d="M4.33,0A4.33,4.33,0,1,1,-4.33,0A4.33,4.33,0,1,1,4.33,0" fill="#e41a1c" stroke-width="2" opacity="1"/><path aria-label="Cells: 32768; V-cycles, per 10, digits: 9.20706573013; solver: cg+amg; stretch: Anisotropy(1:1:2)" role="graphics-symbol" aria-roledescription="point" transform="translate(100,47.72391235982492)" d="M4.33,0A4.33,4.33,0,1,1,-4.33,0A4.33,4.33,0,1,1,4.33,0" fill="#e41a1c" stroke-width="2" opacity="1"/><path aria-label="Cells: 4096; V-cycles, per 10, digits: 11.4541571576; solver: cg+gmg; stretch: Anisotropy(1:1:2)" role="graphics-symbol" aria-roledescription="point" transform="translate(0,44.72779045650049)" d="M-4.33,-4.33h8.66v8.66h-8.66Z" fill="#377eb8" stroke-width="2" opacity="1"/><path aria-label="Cells: 32768; V-cycles, per 10, digits: 13.0088573272; solver: cg+gmg; stretch: Anisotropy(1:1:2)" role="graphics-symbol" aria-roledescription="point" transform="translate(100,42.654856897076755)" d="M-4.33,-4.33h8.66v8.66h-8.66Z" fill="#377eb8" stroke-width="2" opacity="1"/><path aria-label="Cells: 262144; V-cycles, per 10, digits: 13.5580033031; solver: cg+gmg; stretch: Anisotropy(1:1:2)" role="graphics-symbol" aria-roledescription="point" transform="translate(200,41.922662262517065)" d="M-4.33,-4.33h8.66v8.66h-8.66Z" fill="#377eb8" stroke-width="2" opacity="1"/><path aria-label="Cells: 4096; V-cycles, per 10, digits: 11.4541571577; solver: cg+hybrid_mg; stretch: Anisotropy(1:1:2)" role="graphics-symbol" aria-roledescription="point" transform="translate(0,44.72779045644845)" d="M0,-3.75L-4.33,3.75L4.33,3.75Z" fill="#4daf4a" stroke-width="2" opacity="1"/><path aria-label="Cells: 32768; V-cycles, per 10, digits: 13.0088573272; solver: cg+hybrid_mg; stretch: Anisotropy(1:1:2)" role="graphics-symbol" aria-roledescription="point" transform="translate(100,42.65485689707665)" d="M0,-3.75L-4.33,3.75L4.33,3.75Z" fill="#4daf4a" stroke-width="2" opacity="1"/><path aria-label="Cells: 262144; V-cycles, per 10, digits: 13.5339740496; solver: cg+hybrid_mg; stretch: Anisotropy(1:1:2)" role="graphics-symbol" aria-roledescription="point" transform="translate(200,41.95470126721886)" d="M0,-3.75L-4.33,3.75L4.33,3.75Z" fill="#4daf4a" stroke-width="2" opacity="1"/></g><g class="mark-group role-title"><g transform="translate(0,8)"><path class="background" aria-hidden="true" d="M0,0h0v0h0Z" pointer-events="none"/><g><g class="mark-text role-title-text" role="graphics-symbol" aria-roledescription="title" aria-label="Title text 'Anisotropy(1:1:2)'" pointer-events="none"><text text-anchor="start" transform="translate(0,9)" font-family="Times" font-size="12px" fill="#000" opacity="1">Anisotropy(1:1:2)</text></g></g><path class="foreground" aria-hidden="true" d="" pointer-events="none" display="none"/></g></g></g><path class="foreground" aria-hidden="true" d="" display="none"/></g><g transform="translate(0,134)"><path class="background" aria-hidden="true" d="M0.5,0.5h200v60h-200Z" stroke="#ddd"/><g><g class="mark-group role-axis" aria-hidden="true"><g transform="translate(0.5,60.5)"><path class="background" aria-hidden="true" d="M0,0h0v0h0Z" pointer-events="none"/><g><g class="mark-rule role-axis-grid" pointer-events="none"><line transform="translate(0,-60)" x2="0" y2="60" stroke="#ddd" stroke-width="1" opacity="1"/><line transform="translate(100,-60)" x2="0" y2="60" stroke="#ddd" stroke-width="1" opacity="1"/><line transform="translate(200,-60)" x2="0" y2="60" stroke="#ddd" stroke-width="1" opacity="1"/></g></g><path class="foreground" aria-hidden="true" d="" pointer-events="none" display="none"/></g></g><g class="mark-group role-axis" aria-hidden="true"><g transform="translate(0.5,0.5)"><path class="background" aria-hidden="true" d="M0,0h0v0h0Z" pointer-events="none"/><g><g class="mark-rule role-axis-grid" pointer-events="none"><line transform="translate(0,60)" x2="200" y2="0" stroke="#ddd" stroke-width="1" opacity="1"/><line transform="translate(0,33)" x2="200" y2="0" stroke="#ddd" stroke-width="1" opacity="1"/><line transform="translate(0,7)" x2="200" y2="0" stroke="#ddd" stroke-width="1" opacity="1"/></g></g><path class="foreground" aria-hidden="true" d="" pointer-events="none" display="none"/></g></g><g class="mark-group role-scope child_layer_0_pathgroup" role="graphics-object" aria-roledescription="group mark container"><g transform="translate(0,0)"><path class="background" aria-hidden="true" d="M0,0h200v60h-200Z"/><g><g class="mark-line role-mark child_layer_0_marks" role="graphics-object" aria-roledescription="line mark container"><path aria-label="Cells: 4096; V-cycles, per 10, digits: 9.28017680784; solver: cg+amg; stretch: Anisotropy(1:1:4)" role="graphics-symbol" aria-roledescription="line mark" d="M0,47.626L100,45.413" stroke="#e41a1c" stroke-width="3"/></g></g><path class="foreground" aria-hidden="true" d="" display="none"/></g><g transform="translate(0,0)"><path class="background" aria-hidden="true" d="M0,0h200v60h-200Z"/><g><g class="mark-line role-mark child_layer_0_marks" role="graphics-object" aria-roledescription="line mark container"><path aria-label="Cells: 4096; V-cycles, per 10, digits: 15.4517953123; solver: cg+gmg; stretch: Anisotropy(1:1:4)" role="graphics-symbol" aria-roledescription="line mark" d="M0,39.398L100,30.618L200,27.502" stroke="#377eb8" stroke-width="3"/></g></g><path class="foreground" aria-hidden="true" d="" display="none"/></g><g transform="translate(0,0)"><path class="background" aria-hidden="true" d="M0,0h200v60h-200Z"/><g><g class="mark-line role-mark child_layer_0_marks" role="graphics-object" aria-roledescription="line mark container"><path aria-label="Cells: 4096; V-cycles, per 10, digits: 15.4492046011; solver: cg+hybrid_mg; stretch: Anisotropy(1:1:4)" role="graphics-symbol" aria-roledescription="line mark" d="M0,39.401L100,30.618L200,27.502" stroke="#4daf4a" stroke-width="3"/></g></g><path class="foreground" aria-hidden="true" d="" display="none"/></g></g><g class="mark-symbol role-mark child_layer_1_marks" role="graphics-object" aria-roledescription="symbol mark container"><path aria-label="Cells: 4096; V-cycles, per 10, digits: 9.28017680784; solver: cg+amg; stretch: Anisotropy(1:1:4)" role="graphics-symbol" aria-roledescription="point" transform="translate(0,47.626430922878036)" d="M4.33,0A4.33,4.33,0,1,1,-4.33,0A4.33,4.33,0,1,1,4.33,0" fill="#e41a1c" stroke-width="2" opacity="1"/><path aria-label="Cells: 32768; V-cycles, per 10, digits: 10.9405017514; solver: cg+amg; stretch: Anisotropy(1:1:4)" role="graphics-symbol" aria-roledescription="point" transform="translate(100,45.41266433146875)" d="M4.33,0A4.33,4.33,0,1,1,-4.33,0A4.33,4.33,0,1,1,4.33,0" fill="#e41a1c" stroke-width="2" opacity="1"/><path aria-label="Cells: 4096; V-cycles, per 10, digits: 15.4517953123; solver: cg+gmg; stretch: Anisotropy(1:1:4)" role="graphics-symbol" aria-roledescription="point" transform="translate(0,39.39760625023849)" d="M-4.33,-4.33h8.66v8.66h-8.66Z" fill="#377eb8" stroke-width="2" opacity="1"/><path aria-label="Cells: 32768; V-cycles, per 10, digits: 22.0368133539; solver: cg+gmg; stretch: Anisotropy(1:1:4)" role="graphics-symbol" aria-roledescription="point" transform="translate(100,30.61758219483845)" d="M-4.33,-4.33h8.66v8.66h-8.66Z" fill="#377eb8" stroke-width="2" opacity="1"/><path aria-label="Cells: 262144; V-cycles, per 10, digits: 24.3738360292; solver: cg+gmg; stretch: Anisotropy(1:1:4)" role="graphics-symbol" aria-roledescription="point" transform="translate(200,27.501551961091614)" d="M-4.33,-4.33h8.66v8.66h-8.66Z" fill="#377eb8" stroke-width="2" opacity="1"/><path aria-label="Cells: 4096; V-cycles, per 10, digits: 15.4492046011; solver: cg+hybrid_mg; stretch: Anisotropy(1:1:4)" role="graphics-symbol" aria-roledescription="point" transform="translate(0,39.40106053183753)" d="M0,-3.75L-4.33,3.75L4.33,3.75Z" fill="#4daf4a" stroke-width="2" opacity="1"/><path aria-label="Cells: 32768; V-cycles, per 10, digits: 22.0368141367; solver: cg+hybrid_mg; stretch: Anisotropy(1:1:4)" role="graphics-symbol" aria-roledescription="point" transform="translate(100,30.617581151127638)" d="M0,-3.75L-4.33,3.75L4.33,3.75Z" fill="#4daf4a" stroke-width="2" opacity="1"/><path aria-label="Cells: 262144; V-cycles, per 10, digits: 24.3738360359; solver: cg+hybrid_mg; stretch: Anisotropy(1:1:4)" role="graphics-symbol" aria-roledescription="point" transform="translate(200,27.501551952097604)" d="M0,-3.75L-4.33,3.75L4.33,3.75Z" fill="#4daf4a" stroke-width="2" opacity="1"/></g><g class="mark-group role-title"><g transform="translate(0,8)"><path class="background" aria-hidden="true" d="M0,0h0v0h0Z" pointer-events="none"/><g><g class="mark-text role-title-text" role="graphics-symbol" aria-roledescription="title" aria-label="Title text 'Anisotropy(1:1:4)'" pointer-events="none"><text text-anchor="start" transform="translate(0,9)" font-family="Times" font-size="12px" fill="#000" opacity="1">Anisotropy(1:1:4)</text></g></g><path class="foreground" aria-hidden="true" d="" pointer-events="none" display="none"/></g></g></g><path class="foreground" aria-hidden="true" d="" display="none"/></g><g transform="translate(0,201)"><path class="background" aria-hidden="true" d="M0.5,0.5h200v60h-200Z" stroke="#ddd"/><g><g class="mark-group role-axis" aria-hidden="true"><g transform="translate(0.5,60.5)"><path class="background" aria-hidden="true" d="M0,0h0v0h0Z" pointer-events="none"/><g><g class="mark-rule role-axis-grid" pointer-events="none"><line transform="translate(0,-60)" x2="0" y2="60" stroke="#ddd" stroke-width="1" opacity="1"/><line transform="translate(100,-60)" x2="0" y2="60" stroke="#ddd" stroke-width="1" opacity="1"/><line transform="translate(200,-60)" x2="0" y2="60" stroke="#ddd" stroke-width="1" opacity="1"/></g></g><path class="foreground" aria-hidden="true" d="" pointer-events="none" display="none"/></g></g><g class="mark-group role-axis" aria-hidden="true"><g transform="translate(0.5,0.5)"><path class="background" aria-hidden="true" d="M0,0h0v0h0Z" pointer-events="none"/><g><g class="mark-rule role-axis-grid" pointer-events="none"><line transform="translate(0,60)" x2="200" y2="0" stroke="#ddd" stroke-width="1" opacity="1"/><line transform="translate(0,33)" x2="200" y2="0" stroke="#ddd" stroke-width="1" opacity="1"/><line transform="translate(0,7)" x2="200" y2="0" stroke="#ddd" stroke-width="1" opacity="1"/></g></g><path class="foreground" aria-hidden="true" d="" pointer-events="none" display="none"/></g></g><g class="mark-group role-scope child_layer_0_pathgroup" role="graphics-object" aria-roledescription="group mark container"><g transform="translate(0,0)"><path class="background" aria-hidden="true" d="M0,0h200v60h-200Z"/><g><g class="mark-line role-mark child_layer_0_marks" role="graphics-object" aria-roledescription="line mark container"><path aria-label="Cells: 4096; V-cycles, per 10, digits: 10.0950114679; solver: cg+amg; stretch: Anisotropy(1:1:8)" role="graphics-symbol" aria-roledescription="line mark" d="M0,46.54L100,43.305" stroke="#e41a1c" stroke-width="3"/></g></g><path class="foreground" aria-hidden="true" d="" display="none"/></g><g transform="translate(0,0)"><path class="background" aria-hidden="true" d="M0,0h200v60h-200Z"/><g><g class="mark-line role-mark child_layer_0_marks" role="graphics-object" aria-roledescription="line mark container"><path aria-label="Cells: 4096; V-cycles, per 10, digits: 8.88447522075; solver: cg+gmg; stretch: Anisotropy(1:1:8)" role="graphics-symbol" aria-roledescription="line mark" d="M0,48.154L100,21.353L200,4.997" stroke="#377eb8" stroke-width="3"/></g></g><path class="foreground" aria-hidden="true" d="" display="none"/></g><g transform="translate(0,0)"><path class="background" aria-hidden="true" d="M0,0h200v60h-200Z"/><g><g class="mark-line role-mark child_layer_0_marks" role="graphics-object" aria-roledescription="line mark container"><path aria-label="Cells: 4096; V-cycles, per 10, digits: 8.88960642594; solver: cg+hybrid_mg; stretch: Anisotropy(1:1:8)" role="graphics-symbol" aria-roledescription="line mark" d="M0,48.147L100,21.355L200,4.997" stroke="#4daf4a" stroke-width="3"/></g></g><path class="foreground" aria-hidden="true" d="" display="none"/></g></g><g class="mark-symbol role-mark child_layer_1_marks" role="graphics-object" aria-roledescription="symbol mark container"><path aria-label="Cells: 4096; V-cycles, per 10, digits: 10.0950114679; solver: cg+amg; stretch: Anisotropy(1:1:8)" role="graphics-symbol" aria-roledescription="point" transform="translate(0,46.53998470946234)" d="M4.33,0A4.33,4.33,0,1,1,-4.33,0A4.33,4.33,0,1,1,4.33,0" fill="#e41a1c" stroke-width="2" opacity="1"/><path aria-label="Cells: 32768; V-cycles, per 10, digits: 12.5213192881; solver: cg+amg; stretch: Anisotropy(1:1:8)" role="graphics-symbol" aria-roledescription="point" transform="translate(100,43.304907615838275)" d="M4.33,0A4.33,4.33,0,1,1,-4.33,0A4.33,4.33,0,1,1,4.33,0" fill="#e41a1c" stroke-width="2" opacity="1"/><path aria-label="Cells: 4096; V-cycles, per 10, digits: 8.88447522075; solver: cg+gmg; stretch: Anisotropy(1:1:8)" role="graphics-symbol" aria-roledescription="point" transform="translate(0,48.15403303900494)" d="M-4.33,-4.33h8.66v8.66h-8.66Z" fill="#377eb8" stroke-width="2" opacity="1"/><path aria-label="Cells: 32768; V-cycles, per 10, digits: 28.9849671796; solver: cg+gmg; stretch: Anisotropy(1:1:8)" role="graphics-symbol" aria-roledescription="point" transform="translate(100,21.353377093850465)" d="M-4.33,-4.33h8.66v8.66h-8.66Z" fill="#377eb8" stroke-width="2" opacity="1"/><path aria-label="Cells: 262144; V-cycles, per 10, digits: 41.2521794295; solver: cg+gmg; stretch: Anisotropy(1:1:8)" role="graphics-symbol" aria-roledescription="point" transform="translate(200,4.997094094052025)" d="M-4.33,-4.33h8.66v8.66h-8.66Z" fill="#377eb8" stroke-width="2" opacity="1"/><path aria-label="Cells: 4096; V-cycles, per 10, digits: 8.88960642594; solver: cg+hybrid_mg; stretch: Anisotropy(1:1:8)" role="graphics-symbol" aria-roledescription="point" transform="translate(0,48.14719143208039)" d="M0,-3.75L-4.33,3.75L4.33,3.75Z" fill="#4daf4a" stroke-width="2" opacity="1"/><path aria-label="Cells: 32768; V-cycles, per 10, digits: 28.9837462749; solver: cg+hybrid_mg; stretch: Anisotropy(1:1:8)" role="graphics-symbol" aria-roledescription="point" transform="translate(100,21.35500496674442)" d="M0,-3.75L-4.33,3.75L4.33,3.75Z" fill="#4daf4a" stroke-width="2" opacity="1"/><path aria-label="Cells: 262144; V-cycles, per 10, digits: 41.2521794552; solver: cg+hybrid_mg; stretch: Anisotropy(1:1:8)" role="graphics-symbol" aria-roledescription="point" transform="translate(200,4.997094059764353)" d="M0,-3.75L-4.33,3.75L4.33,3.75Z" fill="#4daf4a" stroke-width="2" opacity="1"/></g><g class="mark-group role-title"><g transform="translate(0,8)"><path class="background" aria-hidden="true" d="M0,0h0v0h0Z" pointer-events="none"/><g><g class="mark-text role-title-text" role="graphics-symbol" aria-roledescription="title" aria-label="Title text 'Anisotropy(1:1:8)'" pointer-events="none"><text text-anchor="start" transform="translate(0,9)" font-family="Times" font-size="12px" fill="#000" opacity="1">Anisotropy(1:1:8)</text></g></g><path class="foreground" aria-hidden="true" d="" pointer-events="none" display="none"/></g></g></g><path class="foreground" aria-hidden="true" d="" display="none"/></g></g><g class="mark-group role-legend" role="graphics-symbol" aria-roledescription="legend" aria-label="Symbol legend for shape with 3 values: cg+amg, cg+gmg, cg+hybrid_mg"><g transform="translate(-80,-30)"><path class="background" aria-hidden="true" d="M0,0h230v13h-230Z" pointer-events="none"/><g><g class="mark-group role-legend-entry"><g transform="translate(0,0)"><path class="background" aria-hidden="true" d="M0,0h0v0h0Z" pointer-events="none"/><g><g class="mark-group role-scope" role="graphics-object" aria-roledescription="group mark container"><g transform="translate(0,0.25)"><path class="background" aria-hidden="true" d="M0,0h54.75390625v12.5h-54.75390625Z" pointer-events="none" opacity="1"/><g><g class="mark-symbol role-legend-symbol" pointer-events="none"><path transform="translate(6,6)" d="M5,0A5,5,0,1,1,-5,0A5,5,0,1,1,5,0" fill="black" fill-opacity="1" stroke-width="1.5" opacity="1"/></g><g class="mark-text role-legend-label" pointer-events="none"><text text-anchor="start" transform="translate(16,10)" font-family="Times" font-size="12px" fill="#000" opacity="1">cg+amg</text></g></g><path class="foreground" aria-hidden="true" d="" pointer-events="none" display="none"/></g><g transform="translate(71,0.25)"><path class="background" aria-hidden="true" d="M0,0h55.427734375v12.5h-55.427734375Z" pointer-events="none" opacity="1"/><g><g class="mark-symbol role-legend-symbol" pointer-events="none"><path transform="translate(6,6)" d="M-5,-5h10v10h-10Z" fill="black" fill-opacity="1" stroke-width="1.5" opacity="1"/></g><g class="mark-text role-legend-label" pointer-events="none"><text text-anchor="start" transform="translate(16,10)" font-family="Times" font-size="12px" fill="#000" opacity="1">cg+gmg</text></g></g><path class="foreground" aria-hidden="true" d="" pointer-events="none" display="none"/></g><g transform="translate(143,0.5)"><path class="background" aria-hidden="true" d="M0,0h86.7578125v12h-86.7578125Z" pointer-events="none" opacity="1"/><g><g class="mark-symbol role-legend-symbol" pointer-events="none"><path transform="translate(6,6)" d="M0,-4.33L-5,4.33L5,4.33Z" fill="black" fill-opacity="1" stroke-width="1.5" opacity="1"/></g><g class="mark-text role-legend-label" pointer-events="none"><text text-anchor="start" transform="translate(16,10)" font-family="Times" font-size="12px" fill="#000" opacity="1">cg+hybrid_mg</text></g></g><path class="foreground" aria-hidden="true" d="" pointer-events="none" display="none"/></g></g></g><path class="foreground" aria-hidden="true" d="" pointer-events="none" display="none"/></g></g></g><path class="foreground" aria-hidden="true" d="" pointer-events="none" display="none"/></g></g></g><path class="foreground" aria-hidden="true" d="" display="none"/></g></g></g></svg>